<svg viewBox="0 0 216 56.1" xmlns="http://www.w3.org/2000/svg" xmlns:xlink="http://www.w3.org/1999/xlink" id="Layer_1" overflow="hidden"><style>
.MsftOfcThm_Text1_Fill_v2 {
 fill:#000000; 
}
</style>
<g><path d="M39.2 50.7C39.2 53.1 41.1 55 43.5 55L49.8 55 49.8 0 39.2 0 39.2 50.7Z" class="MsftOfcThm_Text1_Fill_v2"/><path d="M82.5 19.9C79.9 16.7 76.1 14.5 70.7 14.5 59.8 14.5 51.6 23.4 51.6 35.3 51.6 47.2 59.8 56.1 70.7 56.1 76.1 56.1 79.9 53.9 82.5 50.7L82.5 50.8C82.5 53.2 84.4 55.1 86.8 55.1L92.9 55.1 92.9 15.6 82.4 15.6 82.5 19.9 82.5 19.9ZM72.6 46.2C66.4 46.2 62.4 41.3 62.4 35.3 62.4 29.3 66.4 24.4 72.6 24.4 78.7 24.4 82.8 29 82.8 35.3 82.8 41.5 78.7 46.2 72.6 46.2Z" class="MsftOfcThm_Text1_Fill_v2"/><path d="M95.6 50.7C95.6 53.1 97.5 55 99.9 55L106.2 55 106.2 0 95.6 0 95.6 50.7 95.6 50.7Z" class="MsftOfcThm_Text1_Fill_v2"/><path d="M129.2 14.5C116.9 14.5 107.9 23.4 107.9 35.3 107.9 47.2 116.9 56.1 129.2 56.1 141.5 56.1 150.6 47.2 150.6 35.3 150.6 23.4 141.5 14.5 129.2 14.5ZM129.2 46.2C123.2 46.2 118.7 41.7 118.7 35.3 118.7 28.9 123.2 24.4 129.2 24.4 135.2 24.4 139.7 28.9 139.7 35.3 139.7 41.7 135.2 46.2 129.2 46.2Z" class="MsftOfcThm_Text1_Fill_v2"/><path d="M200.4 14.5C195.2 14.5 190 16.3 187 21.3 184.4 17.1 179.7 14.5 174 14.5 169.5 14.5 165.2 16 162.4 20.2L162.4 15.6 152 15.6 152 50.8C152 53.2 153.9 55.1 156.3 55.1L162.6 55.1 162.6 33.4C162.6 27.4 166.4 24.5 171 24.5 175.9 24.5 178.7 27.6 178.7 33.3L178.7 50.7C178.7 53.1 180.6 55 183 55L189.3 55 189.3 33.4C189.3 27.4 193.1 24.5 197.7 24.5 202.5 24.5 205.4 27.6 205.4 33.3L205.4 50.7C205.4 53.1 207.3 55 209.7 55L216 55 216 29.9C216 20.7 209.7 14.5 200.4 14.5Z" class="MsftOfcThm_Text1_Fill_v2"/><path d="M22.7 31 17.9 30.4C14.3 29.8 12 29.2 12.1 26.9 12.1 24.7 14 23.4 18 23.4 21.9 23.5 25.9 24.6 29 25.8 31.1 26.6 33.6 25.7 34.5 23.6L36.5 19.3C31.3 16.6 25.3 14.8 18.2 14.7 8.9 14.4 1.2 18.7 1 26.9 0.9 33.3 3.8 37.7 15.3 39.5L17.7 39.8C22.8 40.5 26.6 40.7 26.6 43.5 26.5 46.4 23.5 47.4 17.6 47.3 11.7 47.2 6.2 44.4 3.7 43L0 51.2C5.5 54.5 12.1 56.1 17.5 56.2 30.8 56.4 37.5 51.7 37.6 43.5 37.7 36.1 31.3 32 22.7 31Z" class="MsftOfcThm_Text1_Fill_v2"/></g></svg>